<svg viewBox="0 0 72 72" xmlns="http://www.w3.org/2000/svg" fill="#000000">
    <g id="SVGRepo_bgCarrier" stroke-width="0"></g>
    <g id="SVGRepo_tracerCarrier" stroke-linecap="round" stroke-linejoin="round"></g>
    <g id="SVGRepo_iconCarrier">
        <g fill="none" fill-rule="evenodd">
            <path
                d="M36,72 L36,72 C55.882251,72 72,55.882251 72,36 L72,36 C72,16.117749 55.882251,-3.65231026e-15 36,0 L36,0 C16.117749,3.65231026e-15 -2.4348735e-15,16.117749 0,36 L0,36 C2.4348735e-15,55.882251 16.117749,72 36,72 Z"
                fill="#FF9A00"></path>
            <path
                d="M14.0004714,51.7142857 C14.0004714,48.243 16.8148698,45.4285714 20.2861184,45.4285714 C23.7573669,45.4285714 26.5717653,48.243 26.5717653,51.7142857 C26.5717653,55.1855714 23.7573669,58 20.2861184,58 C16.8148698,58 14.0004714,55.1855714 14.0004714,51.7142857 Z M58,58 L49.6196612,58 C49.6196612,38.3587143 33.6415467,22.3804286 14.0004714,22.3804286 L14.0004714,14 C38.2614972,14 58,33.7387143 58,58 Z M43.3335429,58 L34.9532041,58 C34.9532041,46.4468571 25.5530191,37.0481429 14,37.0481429 L14,28.6661429 C30.174541,28.6661429 43.3335429,41.8252857 43.3335429,58 Z"
                fill="#FFF"></path>
        </g>
    </g>
</svg>