<?xml version="1.0" ?><svg viewBox="0 0 24 24" xmlns="http://www.w3.org/2000/svg"><defs><style>.cls-1{fill:#ffeabb;}.cls-1,.cls-6{fill-rule:evenodd;}.cls-2{fill:#f7bf75;}.cls-3,.cls-6{fill:#f1734d;}.cls-4{fill:#eae2f9;}.cls-5{fill:#c0c3ee;}.cls-7{fill:#f94060;}</style></defs><g data-name="Marketing Email" id="Marketing_Email"><path class="cls-1" d="M2.93,8.19H21.07v12.7a.44.44,0,0,1-.45.45H3.38a.44.44,0,0,1-.45-.45Z"/><path class="cls-2" d="M13.32,8,12,15.45,4.21,20.5A.45.45,0,0,0,4,21a.46.46,0,0,0,.44.33H20.62a.44.44,0,0,0,.45-.45V8.18Z"/><path class="cls-3" d="M6.51,5.22,3.69,6.85a1.53,1.53,0,0,0-.76,1.32h0a1.71,1.71,0,0,0,.72,1.39L12,15.45l8.35-5.88a1.71,1.71,0,0,0,.72-1.39h0a1.52,1.52,0,0,0-.77-1.32l-3.4-2Z"/><path class="cls-4" d="M6.45,2.67a.9.9,0,0,0-.9.9v7.34h0L12,15.45l6.45-4.54h0V3.57a.9.9,0,0,0-.9-.9Z"/><path class="cls-5" d="M15.59,2.67V8.52a2,2,0,0,1-.85,1.65l-5.12,3.6L12,15.45l6.45-4.54h0V3.57a.9.9,0,0,0-.9-.9Z"/><path class="cls-6" d="M2.93,20.71,11.67,15a.61.61,0,0,1,.66,0l8.74,5.67v.17a.45.45,0,0,1-.45.45H3.38a.45.45,0,0,1-.45-.45Z"/><path class="cls-7" d="M12.6,12.42H11.4a.51.51,0,0,0-.5.5.5.5,0,0,0,.5.5h1.2a.5.5,0,0,0,.5-.5A.51.51,0,0,0,12.6,12.42Z"/><path class="cls-7" d="M13.76,4.71a3.68,3.68,0,0,0-2.87-.25,3.73,3.73,0,0,0,1,7.28h0a.51.51,0,0,0,.5-.49.5.5,0,0,0-.48-.51,2.73,2.73,0,1,1,1.34-5.15,2.43,2.43,0,0,1,1.19,3.2h0a.73.73,0,0,1-.66.49.14.14,0,0,1-.11-.06.34.34,0,0,1-.1-.23c0-.2,0-2.94,0-2.84a.5.5,0,0,0-.5-.5h0a.5.5,0,0,0-.49.43,1.55,1.55,0,0,0-.77-.2A2,2,0,0,0,10,8a2,2,0,0,0,1.82,2.15,1.63,1.63,0,0,0,1-.39.86.86,0,0,0,.13.2,1.15,1.15,0,0,0,.82.35,1.72,1.72,0,0,0,1.59-1.13A3.41,3.41,0,0,0,13.76,4.71ZM11.84,9.13c-.4,0-.82-.46-.82-1.15a1,1,0,0,1,.85-1.09c.44,0,.74.44.75,1.06V8C12.61,8.61,12.27,9.13,11.84,9.13Z"/></g></svg>